<svg width="669" height="129" viewBox="0 0 669 129" fill="none" xmlns="http://www.w3.org/2000/svg">
<path d="M77.2531 82.0012C76.3867 70.5107 72.6982 63.0625 70.902 58.8409C69.107 54.6204 66.3466 50.6693 66.3448 50.6758C66.3395 50.6937 63.8596 64.1219 59.4008 73.8374C58.6566 75.4599 57.6681 77.4858 56.6706 79.1173C53.5924 84.5783 49.1259 89.8028 46.4639 95.0981C43.8245 100.346 43.3347 105.544 43.5802 111.453C43.8274 117.395 45.1937 123.223 46.5054 129C51.4499 127.928 55.7533 126.094 59.4761 123.749C69.2731 117.577 75.193 107.706 76.8753 97.0716C76.8753 97.0716 76.9572 96.6396 76.9939 96.1129C77.7524 87.8936 77.5015 85.3005 77.2531 82.0012Z" fill="#40B3D8"/>
<path d="M77.2531 82.0012C76.3867 70.5107 72.6982 63.0625 70.902 58.8409C69.107 54.6204 66.3466 50.6693 66.3448 50.6758L66.3442 50.6788C66.3442 50.677 66.3448 50.6752 66.3448 50.6752L65.686 49.6909C51.2382 29.312 23.5302 19.1371 0.119787 28.5678C-1.00751 42.8522 5.5831 67.4295 29.6275 74.2849C39.3479 77.2898 47.1316 76.5104 56.6712 79.1167C56.6706 79.1167 56.6706 79.1173 56.6706 79.1173C56.6706 79.1173 66.3674 82.5131 72.0086 87.6053C74.546 89.8951 77.087 92.909 76.9595 96.4937C77.7631 87.9628 77.5057 85.3529 77.2531 82.0012Z" fill="#83C933"/>
<path d="M668.978 97.9303C668.906 97.515 668.689 97.177 668.434 96.841C668.418 96.8195 668.403 96.796 668.388 96.7738C668.376 96.761 668.365 96.7462 668.353 96.7328C667.78 96.0339 667.114 95.3989 666.511 94.7202C665.938 94.0831 665.365 93.4427 664.792 92.8037C664.103 92.0363 663.415 91.2695 662.726 90.5008C661.958 89.6426 661.187 88.7818 660.415 87.923C659.596 87.0091 658.777 86.0979 657.959 85.1833C657.125 84.254 656.29 83.3239 655.459 82.3952L653.014 79.6697C652.251 78.8176 651.489 77.9675 650.728 77.1174C650.05 76.3641 649.376 75.6095 648.699 74.8562C648.142 74.2359 647.587 73.615 647.031 72.9934C646.627 72.5452 646.224 72.0977 645.823 71.6481L645.176 70.9251C645.172 70.9204 645.091 70.835 645.092 70.835C645.105 70.8216 645.118 70.8088 645.131 70.796L645.237 70.6878C645.297 70.6301 645.354 70.5696 645.413 70.5098C645.492 70.4285 645.573 70.3478 645.653 70.2665C645.754 70.1657 645.855 70.0643 645.956 69.9628C646.074 69.8425 646.193 69.7215 646.312 69.6012C646.449 69.4628 646.587 69.3244 646.725 69.1853C646.878 69.0287 647.034 68.8735 647.186 68.7182L647.695 68.2022C647.881 68.0167 648.066 67.8299 648.25 67.6431C648.447 67.4435 648.646 67.2446 648.842 67.045C649.052 66.832 649.262 66.6196 649.472 66.408L650.135 65.7387C650.367 65.5048 650.598 65.2716 650.827 65.0391C651.068 64.7965 651.306 64.5553 651.547 64.3134C651.793 64.0641 652.04 63.8141 652.288 63.5641C652.541 63.3081 652.795 63.0541 653.047 62.796C653.306 62.5339 653.565 62.2739 653.822 62.0125C654.086 61.747 654.348 61.4809 654.611 61.2162C654.879 60.9474 655.144 60.6786 655.409 60.4118C655.676 60.1403 655.943 59.8702 656.21 59.5987C656.479 59.3292 656.747 59.0584 657.016 58.7869C657.282 58.5175 657.549 58.2466 657.817 57.9758C658.082 57.7084 658.35 57.4403 658.615 57.1708C658.879 56.906 659.141 56.6392 659.404 56.3738C659.663 56.1117 659.922 55.8517 660.181 55.5889C660.434 55.3322 660.688 55.0769 660.941 54.8188C661.188 54.5689 661.438 54.3182 661.683 54.0682L662.403 53.3411C662.634 53.1073 662.868 52.8748 663.097 52.6396C663.319 52.4171 663.54 52.192 663.762 51.9683L664.396 51.3312C664.593 51.1303 664.79 50.9287 664.991 50.7284C665.177 50.5423 665.36 50.3562 665.546 50.1667C665.716 49.9946 665.887 49.8233 666.058 49.6499C666.214 49.4933 666.368 49.3374 666.524 49.1788C666.662 49.0391 666.8 48.8993 666.94 48.7595C667.059 48.6372 667.179 48.5162 667.302 48.3939C667.654 48.0351 668.049 47.7045 668.331 47.2872C668.65 46.8161 668.759 46.2221 668.439 45.7235C668.225 45.3922 667.87 45.1724 667.476 45.073C667.272 45.0233 667.061 45.0017 666.852 45.0017H660.189C659.303 45.0017 658.857 45.0017 657.971 45.837L637.099 67.9186V27.5025C637.099 26.2539 636.21 25.418 634.879 25.418H629.992C628.66 25.418 627.773 26.2533 627.773 27.5025V97.5029C627.773 98.7514 628.66 99.584 629.992 99.584H634.879C636.21 99.584 637.099 98.7514 637.099 97.5029V74.1694L657.971 98.3341C658.857 99.1694 659.303 99.584 660.189 99.584H667.106C667.656 99.584 668.23 99.3939 668.635 99.0371C668.959 98.7494 669.047 98.3321 668.978 97.9303ZM622.002 50.4173V45.8357C622.002 44.5838 621.113 44.1665 619.782 44.1665C610.898 44.1665 604.145 44.3694 598.372 46.8699C596.923 47.5177 596.244 48.3335 596.244 49.1681V96.6663C596.244 97.9162 597.134 98.7494 598.02 98.7494H603.349C604.683 98.7494 605.126 97.9162 605.126 96.6663V52.9184C609.122 52.0832 612.675 52.0832 619.782 52.0832C622.002 52.0832 622.002 51.6672 622.002 50.4173ZM579.815 75.834C579.815 85.8331 575.373 92.0846 565.603 92.0846C555.834 92.0846 551.394 85.8325 551.394 75.834V68.3332C551.394 58.3353 555.834 52.0832 565.603 52.0832C575.373 52.0832 579.815 58.3347 579.815 68.3332V75.834ZM589.141 75.834V68.3332C589.141 53.7504 581.146 44.5838 565.603 44.5838C550.06 44.5838 542.069 54.1677 542.069 68.3332V75.834C542.069 90.4175 550.06 99.5827 565.603 99.5827C581.146 100 589.141 90.4181 589.141 75.834ZM535.406 77.9185V47.0842C535.406 45.8357 534.519 44.9997 533.186 44.9997H528.596C527.266 44.9997 526.376 45.835 526.376 47.0842V77.9185C526.376 88.7502 521.64 92.4993 513.204 92.4993C510.538 92.4993 507.578 92.0847 504.471 91.2507V47.0842C504.471 45.8357 503.583 44.9997 502.249 44.9997H497.511C496.178 44.9997 495.293 45.835 495.293 47.0842V91.2507C492.183 92.0853 489.223 92.4993 486.56 92.4993C477.678 92.4993 473.385 88.7502 473.385 77.9185V47.0842C473.385 45.8357 472.498 44.9997 471.167 44.9997H466.575C465.243 44.9997 464.357 45.835 464.357 47.0842V77.9185C464.357 95.417 474.569 100 485.67 100C491.002 100 495.441 99.1681 499.437 97.5016C503.88 99.1688 507.876 100 513.205 100C525.194 100 535.406 95.417 535.406 77.9185ZM449.7 68.3332H421.723V67.4999C421.723 57.0834 426.607 52.0832 435.934 52.0832C445.26 52.0832 449.699 56.2508 449.699 67.4999V68.3332H449.7ZM459.025 72.9162V67.4999C459.025 53.7504 451.033 44.5838 435.934 44.5838C420.834 44.5838 412.398 53.3331 412.398 67.4999V76.2499C412.398 94.5831 423.944 99.9993 436.377 99.9993C443.484 99.9993 449.256 99.582 455.028 98.3321C456.807 97.9162 457.248 97.5009 457.248 96.249V92.9159C457.248 92.0846 456.361 91.666 455.473 91.666H455.028C450.143 92.4986 442.594 92.9159 436.377 92.9159C426.607 92.9159 421.723 88.7496 421.723 77.0832V75H456.807C458.138 75.0007 459.025 74.1681 459.025 72.9162ZM405.737 97.0842V63.093C405.737 58.1553 405.496 52.0133 401.191 48.5236C400.132 47.6655 398.912 46.9922 397.628 46.4687C396.057 45.8276 394.392 45.3996 392.711 45.0938C391.439 44.8599 390.152 44.6993 388.861 44.5838H386.641C380.426 44.5838 375.983 45.417 372.876 47.9168C369.766 44.9997 365.327 44.5838 359.11 44.5838H356.888C344.455 44.5838 338.238 51.6672 338.238 61.6684V97.0842C338.238 98.3328 339.124 99.1687 340.013 99.1687H345.342C346.675 99.1687 347.119 98.3335 347.119 97.0842V61.6684C347.119 53.3331 351.115 52.0832 356.444 52.0832H358.664C365.328 52.0832 367.548 53.3331 367.548 58.7506V97.0842C367.548 98.3328 368.434 99.1687 369.325 99.1687H374.653C375.983 99.1687 376.429 98.3335 376.429 97.0842V58.7506C376.429 53.3331 378.65 52.0832 385.31 52.0832H387.53C393.304 52.0832 396.855 53.3331 396.855 61.6684V97.0842C396.855 98.3328 397.745 99.1687 398.632 99.1687H402.184C405.294 99.1681 405.737 98.3328 405.737 97.0842ZM322.25 91.6667C319.141 92.0846 314.258 92.4993 309.817 92.4993C299.601 92.4993 296.05 85.8331 296.05 75.4166V68.7505C296.05 58.3353 299.159 51.6672 309.817 51.6672C314.258 51.6672 319.141 52.0838 322.25 52.5005V91.6667ZM331.575 95.4171V49.1688C331.575 47.9168 331.133 47.5015 329.357 47.0842C323.584 45.8357 316.476 44.9997 309.817 44.9997C294.273 44.9997 286.724 54.585 286.724 69.1665V75.834C286.724 90.4175 293.829 100 309.817 100C316.035 100 323.584 99.1681 329.357 97.9169C331.133 97.0843 331.575 96.6669 331.575 95.4171ZM285.837 50.4173V45.8357C285.837 44.5838 284.947 44.1665 283.617 44.1665C274.733 44.1665 267.629 44.5838 261.856 47.0842C260.525 47.5015 260.079 48.3341 260.079 49.1688V96.6669C260.079 97.9168 260.968 98.7501 261.856 98.7501H267.183C268.518 98.7501 268.96 97.9168 268.96 96.6669V52.9191C272.957 52.0838 276.51 52.0838 283.617 52.0838C285.837 52.0832 285.837 51.6672 285.837 50.4173ZM252.53 30.4169V27.0838C252.53 26.2519 252.149 25.7634 250.31 25.4166C248.533 25 244.537 25 240.985 25C231.215 25 225 28.3331 225 38.7509V97.5009C225 98.65 225.993 99.582 227.218 99.582H232.105C233.332 99.582 234.325 98.65 234.325 97.5009V52.0832H250.754C252.087 52.0832 252.53 51.2506 252.53 50.4173V47.0842C252.53 45.8357 251.644 45.417 250.754 45.417H233.88V38.7509C233.88 32.9174 235.211 32.0834 240.985 32.0834H249.356C250.088 32.0834 250.94 32.0518 251.526 31.8294C252.208 31.572 252.53 31.2025 252.53 30.4169Z" fill="#40B3D8"/>
<path d="M206.99 24.333C210.299 24.333 212.872 26.9196 212.872 30.2451C212.872 33.5694 210.299 36.1566 206.99 36.1566C203.68 36.1566 201.106 33.5694 201.106 30.2451C201.106 27.2885 203.679 24.333 206.99 24.333ZM185.664 24.333C188.971 24.333 191.547 26.9196 191.547 30.2451C191.547 33.5694 188.972 36.1566 185.664 36.1566C182.355 36.1566 179.779 33.5694 179.779 30.2451C179.779 27.2885 182.355 24.333 185.664 24.333ZM191.547 96.7475V41.6981C191.547 40.591 190.81 39.8509 189.707 39.8509H181.618C180.516 39.8509 179.78 40.591 179.78 41.6981V96.7475C179.78 97.8558 180.516 98.5947 181.618 98.5947H189.707C190.81 98.2246 191.547 97.4875 191.547 96.7475ZM170.587 98.2246V40.2203C166.176 40.2203 159.188 43.1758 159.188 49.4567V88.9883C156.616 89.3583 152.938 89.7289 150.733 89.7289C143.378 89.7289 141.541 84.5551 141.541 77.5353V49.0861C141.173 42.0669 133.451 40.2197 130.143 40.2197V77.1665C130.143 90.4654 136.761 98.9635 150.733 98.9635C152.938 98.9635 157.352 98.2234 159.188 97.8546L159.286 98.8127C159.795 110.321 147.055 105.614 139.702 104.874C134.186 104.874 130.51 109.308 129.406 114.481C132.715 115.589 143.011 116.698 150.365 117.436C163.603 117.806 170.587 110.418 170.587 98.2246ZM212.505 96.7475V41.6981C212.505 40.591 211.77 39.8509 210.667 39.8509H202.578C201.475 39.8509 200.738 40.591 200.738 41.6981V96.7475C200.738 97.8558 201.475 98.5947 202.578 98.5947H210.667C211.77 98.2246 212.505 97.4875 212.505 96.7475Z" fill="#40B3D8"/>
<path fill-rule="evenodd" clip-rule="evenodd" d="M66.7534 38.717C63.3372 28.6738 64.7847 21.9442 71.0349 12.5791C74.0159 8.1108 79.1626 2.92804 83.6735 0C101.873 11.4595 108.603 32.8043 101.909 52.6279C97.0385 67.0518 92.4683 73.0997 80.9125 87.9401C82.2592 72.0462 76.6921 61.0271 71.2264 48.7834C69.8353 45.6683 67.9116 42.1223 66.7534 38.717Z" fill="#F18A2A"/>
<path d="M76.9596 96.4936C77.0871 92.909 74.546 89.8951 72.0086 87.6053C66.3674 82.5131 56.6712 79.1173 56.6712 79.1173C57.6687 77.4858 58.6572 75.4599 59.4014 73.8374C63.8602 64.1219 66.3401 50.6937 66.3454 50.6758C66.3472 50.6699 69.1071 54.6204 70.9027 58.8409C72.6989 63.0625 76.3867 70.5101 77.2537 82.0012C77.5057 85.3529 77.7631 87.9628 76.9596 96.4936Z" fill="#7FB93C"/>
</svg>
